<svg width="64" height="63" viewBox="0 0 64 63" fill="none" xmlns="http://www.w3.org/2000/svg">
<g id="mdi:instagram">
<path id="Vector" d="M20.975 5.25H43.025C51.425 5.25 58.25 12.075 58.25 20.475V42.525C58.25 46.5629 56.6459 50.4355 53.7907 53.2907C50.9355 56.1459 47.0629 57.75 43.025 57.75H20.975C12.575 57.75 5.75 50.925 5.75 42.525V20.475C5.75 16.4371 7.35406 12.5645 10.2093 9.7093C13.0645 6.85406 16.9371 5.25 20.975 5.25ZM20.45 10.5C17.9437 10.5 15.5401 11.4956 13.7678 13.2678C11.9956 15.0401 11 17.4437 11 19.95V43.05C11 48.2738 15.2263 52.5 20.45 52.5H43.55C46.0563 52.5 48.4599 51.5044 50.2322 49.7322C52.0044 47.9599 53 45.5563 53 43.05V19.95C53 14.7263 48.7738 10.5 43.55 10.5H20.45ZM45.7813 14.4375C46.6515 14.4375 47.4861 14.7832 48.1015 15.3986C48.7168 16.0139 49.0625 16.8485 49.0625 17.7188C49.0625 18.589 48.7168 19.4236 48.1015 20.0389C47.4861 20.6543 46.6515 21 45.7813 21C44.911 21 44.0764 20.6543 43.4611 20.0389C42.8457 19.4236 42.5 18.589 42.5 17.7188C42.5 16.8485 42.8457 16.0139 43.4611 15.3986C44.0764 14.7832 44.911 14.4375 45.7813 14.4375ZM32 18.375C35.481 18.375 38.8194 19.7578 41.2808 22.2192C43.7422 24.6806 45.125 28.019 45.125 31.5C45.125 34.981 43.7422 38.3194 41.2808 40.7808C38.8194 43.2422 35.481 44.625 32 44.625C28.519 44.625 25.1806 43.2422 22.7192 40.7808C20.2578 38.3194 18.875 34.981 18.875 31.5C18.875 28.019 20.2578 24.6806 22.7192 22.2192C25.1806 19.7578 28.519 18.375 32 18.375ZM32 23.625C29.9114 23.625 27.9084 24.4547 26.4315 25.9315C24.9547 27.4084 24.125 29.4114 24.125 31.5C24.125 33.5886 24.9547 35.5916 26.4315 37.0685C27.9084 38.5453 29.9114 39.375 32 39.375C34.0886 39.375 36.0916 38.5453 37.5685 37.0685C39.0453 35.5916 39.875 33.5886 39.875 31.5C39.875 29.4114 39.0453 27.4084 37.5685 25.9315C36.0916 24.4547 34.0886 23.625 32 23.625Z" fill="#13D68F"/>
</g>
</svg>
