<svg width="64" height="63" viewBox="0 0 64 63" fill="none" xmlns="http://www.w3.org/2000/svg">
<g id="ic:baseline-telegram">
<path id="Vector" d="M32 5.25C17.51 5.25 5.75 17.01 5.75 31.5C5.75 45.99 17.51 57.75 32 57.75C46.49 57.75 58.25 45.99 58.25 31.5C58.25 17.01 46.49 5.25 32 5.25ZM44.18 23.1C43.7862 27.2475 42.08 37.3275 41.2137 41.9738C40.8463 43.9425 40.1112 44.5988 39.4287 44.6775C37.9062 44.8088 36.7512 43.68 35.2812 42.7088C32.9713 41.1863 31.6588 40.2413 29.4275 38.7713C26.8288 37.065 28.5087 36.12 30.005 34.5975C30.3988 34.2038 37.1187 28.0875 37.25 27.5362C37.2682 27.4528 37.2658 27.3661 37.2429 27.2837C37.2201 27.2014 37.1774 27.1259 37.1187 27.0638C36.9613 26.9325 36.7512 26.985 36.5675 27.0112C36.3312 27.0637 32.6563 29.505 25.49 34.335C24.44 35.0438 23.495 35.4112 22.655 35.385C21.71 35.3587 19.925 34.86 18.5862 34.4137C16.9325 33.8887 15.6462 33.6 15.7513 32.6812C15.8038 32.2087 16.46 31.7362 17.6938 31.2375C25.3588 27.9037 30.4513 25.6988 32.9975 24.6488C40.295 21.6038 41.7913 21.0787 42.7887 21.0787C42.9988 21.0787 43.4975 21.1312 43.8125 21.3937C44.075 21.6037 44.1537 21.8925 44.18 22.1025C44.1537 22.26 44.2062 22.7325 44.18 23.1Z" fill="#13D68F"/>
</g>
</svg>
