<svg width="64" height="63" viewBox="0 0 64 63" fill="none" xmlns="http://www.w3.org/2000/svg">
<g id="ri:vk-fill">
<path id="Vector" d="M11.6825 11.1825C8.375 14.5215 8.375 19.8608 8.375 30.555V32.445C8.375 43.1235 8.375 48.4627 11.6825 51.8175C15.0215 55.125 20.3608 55.125 31.055 55.125H32.945C43.6235 55.125 48.9627 55.125 52.3175 51.8175C55.625 48.4785 55.625 43.1392 55.625 32.445V30.555C55.625 19.8765 55.625 14.5373 52.3175 11.1825C48.9785 7.875 43.6392 7.875 32.945 7.875H31.055C20.3765 7.875 15.0373 7.875 11.6825 11.1825ZM16.3445 22.2547H21.7625C21.9358 31.2637 25.9048 35.0752 29.0548 35.8627V22.2547H34.142V30.0195C37.2448 29.6887 40.5208 26.145 41.6233 22.239H46.6947C46.2814 24.261 45.4554 26.176 44.2684 27.8643C43.0815 29.5526 41.559 30.978 39.7963 32.0513C41.7635 33.03 43.5008 34.4149 44.8936 36.1144C46.2863 37.8139 47.3028 39.7895 47.876 41.9107H42.2848C41.0877 38.178 38.0952 35.28 34.142 34.8862V41.9107H33.512C22.739 41.9107 16.5965 34.5397 16.3445 22.2547Z" fill="#13D68F"/>
</g>
</svg>
